<svg width="16px" height="16px" viewBox="0 0 16 16" version="1.1" xmlns="http://www.w3.org/2000/svg" xmlns:xlink="http://www.w3.org/1999/xlink">
    <g fill="none" fill-rule="evenodd">
        <path d="M8,16 C3.6,16 0,12.4 0,8 C0,3.6 3.6,0 8,0 C12.4,0 16,3.6 16,8 C16,12.4 12.4,16 8,16 Z M8,2 C4.7,2 2,4.7 2,8 C2,11.3 4.7,14 8,14 C11.3,14 14,11.3 14,8 C14,4.7 11.3,2 8,2 Z" id="Combined-Shape" fill="#EA5548"></path>
        <polygon id="Path" fill="#316901" points="6.6 11.3 3.8 8.4 5.2 7 6.6 8.4 10.2 4.9 11.6 6.3"></polygon>
    </g>
</svg>